<svg width="256" height="256" viewBox="0 0 256 256" fill="none" xmlns="http://www.w3.org/2000/svg">
<path d="M37.0791 75.9981C55.1308 44.6339 89.0117 23.517 127.831 23.517C172.932 23.517 211.365 52.0142 226.058 91.9628C230.544 85.033 235.014 78.8077 239.763 74.1305L242.719 71.2308C221.769 29.0215 178.2 0 127.831 0C83.4884 0 44.3969 22.5013 21.3899 56.6914L23.2831 58.6C27.9998 63.3345 32.5436 69.3141 37.0791 75.9981Z" fill="#38B6FF"/>
<path d="M255.868 133.581C255.909 132.672 255.942 131.763 255.959 130.846C255.984 129.904 256 128.953 256 128.003C256 111.752 252.954 96.205 247.431 81.9031C230.828 98.2118 213.616 143.829 195.474 143.829C176.854 143.829 161.436 91.2411 142.817 91.2329C122.345 91.2329 105.388 149.063 84.9163 149.063C60.6909 149.063 37.7086 88.5708 15.5411 66.2825C6.79923 82.1079 1.32527 99.9729 0 118.985C20.8916 157.696 60.658 199.906 84.9163 197.759C117.513 194.876 126.378 133.704 149.056 133.704C165.47 133.704 179.768 175.324 195.474 180.066C203.804 182.581 213.04 179.632 222.094 173.366C205.187 208.342 169.339 232.482 127.835 232.482C93.9215 232.482 63.7778 216.362 44.6642 191.37C28.1106 178.002 12.1991 158.802 0.304566 140.691C6.68399 205.426 61.3412 255.999 127.835 255.999C196.741 255.999 252.938 201.683 255.868 133.59V133.581Z" fill="#38B6FF"/>
</svg>
